<svg xmlns="http://www.w3.org/2000/svg" width="24" height="24" viewBox="0 0 24 24">
    <g fill="none" fill-rule="evenodd">
        <g fill="#0AF">
            <g>
                <g>
                    <g>
                        <path d="M14.12 4.597l5.658 6.062c.717.768.717 1.96 0 2.73L14.12 19.45c-.565.606-1.514.639-2.12.073-.606-.565-.638-1.514-.073-2.12l2.836-3.039c.188-.202.177-.518-.024-.707-.093-.086-.215-.134-.342-.134H4.5c-.828 0-1.5-.671-1.5-1.5 0-.828.672-1.5 1.5-1.5h9.897c.277 0 .5-.224.5-.5 0-.127-.048-.249-.134-.341l-2.836-3.038c-.565-.606-.533-1.555.073-2.12.606-.566 1.555-.533 2.12.073z" transform="translate(-468 -307) translate(106 280) translate(40 20) translate(322 7)"/>
                    </g>
                </g>
            </g>
        </g>
    </g>
</svg>
